<?xml version="1.0" encoding="utf-8"?>
<!-- Generator: Adobe Illustrator 27.9.0, SVG Export Plug-In . SVG Version: 6.00 Build 0)  -->
<svg version="1.0" id="Capa_1" xmlns="http://www.w3.org/2000/svg" xmlns:xlink="http://www.w3.org/1999/xlink" x="0px" y="0px"
	 width="40px" height="40px" viewBox="0 0 40 40" style="enable-background:new 0 0 40 40;" xml:space="preserve">
<style type="text/css">
	.st0{clip-path:url(#SVGID_00000160162101921210820620000011556829307447538829_);}
	.st1{clip-path:url(#SVGID_00000160877358978034926470000017401313696061992342_);}
	.st2{fill:#68E1FD;}
	.st3{fill:#4463B3;}
	.st4{opacity:0.45;}
	.st5{clip-path:url(#SVGID_00000009568731717843632320000009725873433058557621_);}
	.st6{fill:#E6E6E6;}
	.st7{fill:#24285B;}
	.st8{fill:#A5A5A5;}
	.st9{opacity:8.000000e-02;}
	.st10{clip-path:url(#SVGID_00000146496815488409531780000002109060518919365803_);}
	.st11{fill:#6BBBFC;}
	.st12{fill:#FFD200;}
	.st13{fill:none;stroke:#FFFFFF;stroke-width:1.353;stroke-linecap:round;stroke-linejoin:round;}
	.st14{fill:#F2F2F2;}
	.st15{clip-path:url(#SVGID_00000155121029327327204760000005606911296700017582_);}
	.st16{clip-path:url(#SVGID_00000152264007584538121960000016422745963966643847_);}
	.st17{fill:#FFFFFF;}
	.st18{opacity:0.32;}
	.st19{clip-path:url(#SVGID_00000134969320912005074980000009098956585920563857_);}
	.st20{clip-path:url(#SVGID_00000176731281350954526580000016905557861739916223_);}
	.st21{clip-path:url(#SVGID_00000132061431077048883230000017645115279914874538_);}
	.st22{clip-path:url(#SVGID_00000036939564905096352600000003376940901163664560_);}
	.st23{clip-path:url(#SVGID_00000003063773773025684060000007276229917156598201_);}
	.st24{fill:#F4A28C;}
	.st25{fill:#4E8DC6;}
	.st26{clip-path:url(#SVGID_00000151522214378848973690000010591346942494863795_);}
	.st27{clip-path:url(#SVGID_00000175294376432135101980000001296534770246729613_);}
</style>
<g>
	<defs>
		<rect id="SVGID_1_" x="0.1" y="4.1" width="40" height="31.9"/>
	</defs>
	<clipPath id="SVGID_00000055693836336698062640000004911465906466356111_">
		<use xlink:href="#SVGID_1_"  style="overflow:visible;"/>
	</clipPath>
	<g id="Grupo_275" style="clip-path:url(#SVGID_00000055693836336698062640000004911465906466356111_);">
		<g id="Grupo_274" transform="translate(0 0)">
			<g>
				<defs>
					<rect id="SVGID_00000132074130162311628100000012610571512297499553_" x="0.1" y="4.1" width="40" height="31.9"/>
				</defs>
				<clipPath id="SVGID_00000008139311641434098790000008769012532299315610_">
					<use xlink:href="#SVGID_00000132074130162311628100000012610571512297499553_"  style="overflow:visible;"/>
				</clipPath>
				<g id="Grupo_273" style="clip-path:url(#SVGID_00000008139311641434098790000008769012532299315610_);">
					<path id="Trazado_238" class="st2" d="M7,13c1.8-0.8,3.8-0.9,5.6-0.3c3,1-2.8,2.7-2.8,2.7L7,13z"/>
					<path id="Trazado_239" class="st3" d="M7,13c1.8-0.8,3.8-0.9,5.6-0.3c3,1-2.8,2.7-2.8,2.7L7,13z"/>
					<path id="Trazado_240" class="st3" d="M3.8,14c-1.2,0.8-2,2.1-2.3,3.6c-0.5,2.6,5.7,6,5.7,6l3.8-2.9c0,0,2.3-10-5.7-7.3L3.8,14
						z"/>
					<g id="Grupo_242" transform="translate(2.012 26.481)" class="st4">
						<g id="Grupo_241">
							<g>
								<defs>
									<rect id="SVGID_00000146468285077173492150000007937677837827647903_" x="0.1" y="4.1" width="38" height="5.5"/>
								</defs>
								<clipPath id="SVGID_00000149366127224276948460000007863275697320419517_">
									<use xlink:href="#SVGID_00000146468285077173492150000007937677837827647903_"  style="overflow:visible;"/>
								</clipPath>
								<g id="Grupo_240" style="clip-path:url(#SVGID_00000149366127224276948460000007863275697320419517_);">
									<path id="Trazado_241" class="st6" d="M19.1,4.1c10.5,0,19,1.2,19,2.7s-8.5,2.7-19,2.7s-19-1.2-19-2.7S8.6,4.1,19.1,4.1"/>
								</g>
							</g>
						</g>
					</g>
					<rect id="Rectángulo_212" x="9.8" y="8.2" class="st6" width="21.8" height="25.1"/>
					<rect id="Rectángulo_213" x="26" y="22.4" class="st7" width="3" height="2.8"/>
					<rect id="Rectángulo_214" x="26" y="26.6" class="st8" width="3" height="2.8"/>
					<g id="Grupo_245" transform="translate(23.169 20.34)" class="st9">
						<g id="Grupo_244">
							<g>
								<defs>
									<rect id="SVGID_00000088107996940804557820000015243728690919736968_" x="0.1" y="4.1" width="6.6" height="8.9"/>
								</defs>
								<clipPath id="SVGID_00000181072993136807945440000000555093998078395522_">
									<use xlink:href="#SVGID_00000088107996940804557820000015243728690919736968_"  style="overflow:visible;"/>
								</clipPath>
								<g id="Grupo_243" style="clip-path:url(#SVGID_00000181072993136807945440000000555093998078395522_);">
									<path id="Trazado_242" d="M3.7,4.1c0,0-5.5,0.9-2.9,8.9h5.9L3.7,4.1z"/>
								</g>
							</g>
						</g>
					</g>
					<path id="Trazado_243" class="st7" d="M7.3,23.6l2.6,3.5l-0.1-5.4L7.3,23.6z"/>
					<rect id="Rectángulo_216" x="9.5" y="6.4" class="st11" width="22.5" height="6.3"/>
					<path id="Trazado_244" class="st12" d="M30.4,23c2.8,0,5.1,2.3,5.1,5.1s-2.3,5.1-5.1,5.1s-5.1-2.3-5.1-5.1S27.5,23,30.4,23
						L30.4,23"/>
					<path id="Trazado_245" class="st13" d="M28.8,28.1l1.1,1.9l2.3-3.4"/>
					<rect id="Rectángulo_217" x="13.8" y="4.1" class="st14" width="1.8" height="5.5"/>
					<g id="Grupo_248" transform="translate(15.561 2.289)" class="st9">
						<g id="Grupo_247">
							<g>
								<defs>
									<rect id="SVGID_00000034795704769815316550000007942327772462671037_" x="0.1" y="4.1" width="1.2" height="3.2"/>
								</defs>
								<clipPath id="SVGID_00000100363205393322591850000017918126539036610988_">
									<use xlink:href="#SVGID_00000034795704769815316550000007942327772462671037_"  style="overflow:visible;"/>
								</clipPath>
								<g id="Grupo_246" style="clip-path:url(#SVGID_00000100363205393322591850000017918126539036610988_);">
									<rect id="Rectángulo_218" x="0.1" y="4.1" width="1.2" height="3.2"/>
								</g>
							</g>
						</g>
					</g>
					<g id="Grupo_251" transform="translate(27.488 2.289)" class="st9">
						<g id="Grupo_250">
							<g>
								<defs>
									<rect id="SVGID_00000033351508063804518260000013867190309541974175_" x="0.1" y="4.1" width="1.2" height="3.2"/>
								</defs>
								<clipPath id="SVGID_00000030448003704717603640000006311428681713875844_">
									<use xlink:href="#SVGID_00000033351508063804518260000013867190309541974175_"  style="overflow:visible;"/>
								</clipPath>
								<g id="Grupo_249" style="clip-path:url(#SVGID_00000030448003704717603640000006311428681713875844_);">
									<rect id="Rectángulo_220" x="0.1" y="4.1" width="1.2" height="3.2"/>
								</g>
							</g>
						</g>
					</g>
					<rect id="Rectángulo_222" x="25.7" y="4.1" class="st14" width="1.8" height="5.5"/>
					<rect id="Rectángulo_223" x="12.8" y="15.2" class="st7" width="4.9" height="1.5"/>
					<rect id="Rectángulo_224" x="12.9" y="18.3" class="st17" width="3" height="2.8"/>
					<g id="Grupo_254" transform="translate(17.294 14.22)" class="st18">
						<g id="Grupo_253">
							<g>
								<defs>
									<rect id="SVGID_00000122721653937295831490000013352087251909763751_" x="0.1" y="4.1" width="3" height="2.8"/>
								</defs>
								<clipPath id="SVGID_00000106836308813553203030000001111889860052115077_">
									<use xlink:href="#SVGID_00000122721653937295831490000013352087251909763751_"  style="overflow:visible;"/>
								</clipPath>
								<g id="Grupo_252" style="clip-path:url(#SVGID_00000106836308813553203030000001111889860052115077_);">
									<rect id="Rectángulo_225" x="0.1" y="4.1" class="st8" width="3" height="2.8"/>
								</g>
							</g>
						</g>
					</g>
					<rect id="Rectángulo_227" x="21.7" y="18.3" class="st12" width="3" height="2.8"/>
					<rect id="Rectángulo_228" x="26" y="18.3" class="st7" width="3" height="2.8"/>
					<path id="Trazado_246" class="st17" d="M3.7,14c0,0.6,0.3,1.2,0.8,1.5c0.9,0.5,0.8-0.7,0.8-0.7s0.3,0.4,0.9-0.1
						s-0.7-1.3-0.7-1.3L3.7,14z"/>
					<rect id="Rectángulo_229" x="12.9" y="22.4" class="st17" width="3" height="2.8"/>
					<g id="Grupo_257" transform="translate(17.294 18.355)" class="st18">
						<g id="Grupo_256">
							<g>
								<defs>
									<rect id="SVGID_00000084528544981687305500000003235976477917929915_" x="0.1" y="4.1" width="3" height="2.8"/>
								</defs>
								<clipPath id="SVGID_00000143586849327147629180000009650335959476972693_">
									<use xlink:href="#SVGID_00000084528544981687305500000003235976477917929915_"  style="overflow:visible;"/>
								</clipPath>
								<g id="Grupo_255" style="clip-path:url(#SVGID_00000143586849327147629180000009650335959476972693_);">
									<rect id="Rectángulo_230" x="0.1" y="4.1" class="st8" width="3" height="2.8"/>
								</g>
							</g>
						</g>
					</g>
					<g id="Grupo_260" transform="translate(21.668 18.355)" class="st18">
						<g id="Grupo_259">
							<g>
								<defs>
									<rect id="SVGID_00000006701109483594968790000008678757852098246053_" x="0.1" y="4.1" width="3" height="2.8"/>
								</defs>
								<clipPath id="SVGID_00000065766934417091086450000009686261167028202145_">
									<use xlink:href="#SVGID_00000006701109483594968790000008678757852098246053_"  style="overflow:visible;"/>
								</clipPath>
								<g id="Grupo_258" style="clip-path:url(#SVGID_00000065766934417091086450000009686261167028202145_);">
									<rect id="Rectángulo_232" x="0.1" y="4.1" class="st8" width="3" height="2.8"/>
								</g>
							</g>
						</g>
					</g>
					<rect id="Rectángulo_234" x="12.9" y="26.6" class="st17" width="3" height="2.8"/>
					<g id="Grupo_263" transform="translate(17.294 22.515)" class="st18">
						<g id="Grupo_262">
							<g>
								<defs>
									<rect id="SVGID_00000030447783203555660190000006838389690075254181_" x="0.1" y="4.1" width="3" height="2.8"/>
								</defs>
								<clipPath id="SVGID_00000069364079122371610480000002648577057404971683_">
									<use xlink:href="#SVGID_00000030447783203555660190000006838389690075254181_"  style="overflow:visible;"/>
								</clipPath>
								<g id="Grupo_261" style="clip-path:url(#SVGID_00000069364079122371610480000002648577057404971683_);">
									<rect id="Rectángulo_235" x="0.1" y="4.1" class="st8" width="3" height="2.8"/>
								</g>
							</g>
						</g>
					</g>
					<g id="Grupo_266" transform="translate(21.668 22.515)" class="st18">
						<g id="Grupo_265">
							<g>
								<defs>
									<rect id="SVGID_00000012473608015733873760000014910519861134202301_" x="0.1" y="4.1" width="3" height="2.8"/>
								</defs>
								<clipPath id="SVGID_00000100380091654193293510000010284838369149192848_">
									<use xlink:href="#SVGID_00000012473608015733873760000014910519861134202301_"  style="overflow:visible;"/>
								</clipPath>
								<g id="Grupo_264" style="clip-path:url(#SVGID_00000100380091654193293510000010284838369149192848_);">
									<rect id="Rectángulo_237" x="0.1" y="4.1" class="st8" width="3" height="2.8"/>
								</g>
							</g>
						</g>
					</g>
					<path id="Trazado_247" class="st24" d="M5.1,12.9c0.1,0.2,0.1,0.4,0.2,0.6c0.2,0.3,0.2,0.7-0.1,1C4.6,15,4,14.1,4,14.1
						s-0.9-0.7-0.3-1.2C4.3,12.4,4.8,12,5.1,12.9"/>
					<path id="Trazado_248" class="st7" d="M3,12.7c-0.1,0.1-0.2,0.3-0.2,0.5c0,0.2,0.1,0.4,0.3,0.5C3.5,13.9,4,14.1,4,14.1
						s-0.5-0.4,0-0.6s1,0,1.2-0.5s0.3-0.8,0-1.1s-0.4-0.7-0.9-0.3s-0.4-0.1-0.8-0.2c-0.4-0.1-0.9,0.1-0.7,0.4
						C2.9,12.1,3.2,12.4,3,12.7"/>
					<path id="Trazado_249" class="st2" d="M4.5,17.1c-0.2-0.8-1-1.3-1.8-1.1c-0.4,0.1-0.7,0.3-0.9,0.7c-0.9,1.4-2,3.7-1.6,5.9
						c0.6,3.5,3.3,6.5,9.7,4.6v-1c-1.4,0.3-2.8,0.2-4.2-0.3c-1.8-0.7-2.7-2.8-2-4.7c0-0.1,0.1-0.2,0.1-0.2
						C4.4,19.7,4.7,18.4,4.5,17.1"/>
					<path id="Trazado_250" class="st25" d="M4.5,17.1c-0.2-0.8-1-1.3-1.8-1.1c-0.4,0.1-0.7,0.3-0.9,0.7c-0.9,1.4-2,3.7-1.6,5.9
						c0.6,3.5,3.3,6.5,9.7,4.6v-1c-1.4,0.3-2.8,0.2-4.2-0.3c-1.8-0.7-2.7-2.8-2-4.7c0-0.1,0.1-0.2,0.1-0.2
						C4.4,19.7,4.7,18.4,4.5,17.1"/>
					<path id="Trazado_251" class="st24" d="M9.8,27.1c-0.5-0.3-0.7-0.9-0.4-1.4c0,0,0,0,0-0.1C10.1,24.8,11.2,25.9,9.8,27.1"/>
					<g id="Grupo_269" transform="translate(9.757 8.607)" class="st18">
						<g id="Grupo_268">
							<g>
								<defs>
									<rect id="SVGID_00000013886339652145593180000011587263815183934619_" x="0.1" y="4.1" width="21.8" height="1.3"/>
								</defs>
								<clipPath id="SVGID_00000071521016993391296190000001789570983942837142_">
									<use xlink:href="#SVGID_00000013886339652145593180000011587263815183934619_"  style="overflow:visible;"/>
								</clipPath>
								<g id="Grupo_267" style="clip-path:url(#SVGID_00000071521016993391296190000001789570983942837142_);">
									<rect id="Rectángulo_239" x="0.1" y="4.1" class="st8" width="21.8" height="1.3"/>
								</g>
							</g>
						</g>
					</g>
					<path id="Trazado_252" class="st24" d="M4,14.1c0,0-0.2-0.3-0.5-0.1S3.7,14.6,4,14.1"/>
					<path id="Trazado_253" class="st24" d="M5.3,13.6c0,0-0.2-0.2,0-0.5S5.9,13.4,5.3,13.6"/>
					<path id="Trazado_254" class="st24" d="M18.1,6.4c0,0,0.7-1.1,1.5-0.5S19.7,7.1,18.1,6.4"/>
					<g id="Grupo_272" transform="translate(5.526 8.872)" class="st9">
						<g id="Grupo_271">
							<g>
								<defs>
									<rect id="SVGID_00000147198936741501822990000008605522997289668286_" x="0.1" y="4.1" width="4.2" height="10.7"/>
								</defs>
								<clipPath id="SVGID_00000129175435387255634040000012585376863296438442_">
									<use xlink:href="#SVGID_00000147198936741501822990000008605522997289668286_"  style="overflow:visible;"/>
								</clipPath>
								<g id="Grupo_270" style="clip-path:url(#SVGID_00000129175435387255634040000012585376863296438442_);">
									<path id="Trazado_255" d="M1.5,4.1c0,0,3.7,5.8-1.4,9.6l1.7,1.1l2.6-1.9V4.7C3.5,4.1,2.5,3.9,1.5,4.1"/>
								</g>
							</g>
						</g>
					</g>
				</g>
			</g>
		</g>
	</g>
</g>
</svg>
