<?xml version="1.0" encoding="utf-8"?>
<!-- Generator: Adobe Illustrator 28.0.0, SVG Export Plug-In . SVG Version: 6.00 Build 0)  -->
<svg version="1.1" id="Capa_1" fill='#A0CA72' xmlns="http://www.w3.org/2000/svg" xmlns:xlink="http://www.w3.org/1999/xlink" x="0px" y="0px" width="24px" height="24px" viewBox="0 0 24 24" style="enable-background:new 0 0 24 24;" xml:space="preserve">
	<g>
		<path d="M7.2,23.5c-0.3,0-0.7-0.2-0.9-0.5l-2.8-4.6C3.3,18,3.2,17.5,3.2,17c0-1.4,1.2-2.6,2.6-2.6h0.4c0.9,0,1.8,0.4,2.4,1.2
			l0.6,0.8v-6c0-1.7,1.3-3,3-3s3,1.3,3,3v5h1c2.8,0,5,2.2,5,5v2c0,0.6-0.4,1-1,1s-1-0.4-1-1v-2c0-1.7-1.3-3-3-3h-1c-1.1,0-2-0.9-2-2
			v-5c0-0.6-0.4-1-1-1s-1,0.4-1,1v9c0,0.4-0.3,0.8-0.7,0.9c-0.4,0.1-0.9,0-1.1-0.3L7,16.9c-0.2-0.2-0.5-0.4-0.8-0.4H5.8
			c-0.3,0-0.6,0.3-0.6,0.6c0,0.1,0,0.2,0.1,0.3L8.1,22c0.3,0.5,0.1,1.1-0.3,1.4C7.6,23.4,7.4,23.5,7.2,23.5z"/>
		<path d="M6.7,10.5c-0.6,0-1-0.4-1-1v-8c0-0.6,0.4-1,1-1s1,0.4,1,1v8C7.7,10.1,7.3,10.5,6.7,10.5z"/>
		<path d="M10.7,6.5h-8c-0.6,0-1-0.4-1-1s0.4-1,1-1h8c0.6,0,1,0.4,1,1S11.3,6.5,10.7,6.5z"/>
	</g>
</svg>
