<?xml version="1.0" encoding="utf-8"?>
<!-- Generator: Adobe Illustrator 27.9.0, SVG Export Plug-In . SVG Version: 6.00 Build 0)  -->
<svg version="1.0" id="Capa_1" xmlns="http://www.w3.org/2000/svg" xmlns:xlink="http://www.w3.org/1999/xlink" x="0px" y="0px"
	 width="14px" height="19px" viewBox="0 0 14 19" style="enable-background:new 0 0 14 19;" xml:space="preserve">
<style type="text/css">
	.st0{fill:#BF0000;}
</style>
<path id="Trazado_77" class="st0" d="M7,5c-3.9,0-7,3.1-7,7s3.1,7,7,7s7-3.1,7-7S10.9,5,7,5 M9.3,13.5c0.2,0.2,0.3,0.6,0,0.8
	c-0.2,0.2-0.6,0.3-0.8,0l0,0L7,12.8l-1.5,1.5c-0.2,0.2-0.6,0.2-0.8,0s-0.2-0.6,0-0.8L6.2,12l-1.5-1.5c-0.2-0.2-0.2-0.6,0-0.8
	c0.2-0.2,0.6-0.2,0.8,0l0,0L7,11.2l1.5-1.5c0.2-0.2,0.6-0.3,0.8,0c0.2,0.2,0.3,0.6,0,0.8l0,0L7.8,12L9.3,13.5z"/>
</svg>
