<?xml version="1.0" encoding="utf-8"?>
<!-- Generator: Adobe Illustrator 27.9.0, SVG Export Plug-In . SVG Version: 6.00 Build 0)  -->
<svg version="1.0" id="Capa_1" xmlns="http://www.w3.org/2000/svg" xmlns:xlink="http://www.w3.org/1999/xlink" x="0px" y="0px"
	 width="14px" height="19px" viewBox="0 0 14 19" style="enable-background:new 0 0 14 19;" xml:space="preserve">
<style type="text/css">
	.st0{fill:#FFC400;}
</style>
<g id="Grupo_220">
	<path id="Trazado_226" class="st0" d="M8.8,8.4c-2.9,0-5.2,2.4-5.2,5.3S5.9,19,8.8,19s5.2-2.4,5.2-5.3S11.7,8.4,8.8,8.4 M12.8,13.7
		c0,2.3-1.8,4.1-4,4.1s-4-1.8-4-4.1s1.8-4.1,4-4.1C11,9.6,12.8,11.4,12.8,13.7"/>
	<path id="Trazado_227" class="st0" d="M9.4,13.5v-2.4c0-0.3-0.3-0.6-0.6-0.6s-0.6,0.3-0.6,0.6v2.6c0,0.1,0,0.2,0.1,0.3l0.8,1.5
		c0.2,0.3,0.5,0.4,0.8,0.2l0,0c0.3-0.2,0.4-0.5,0.2-0.8l0,0L9.4,13.5z"/>
	<path id="Trazado_228" class="st0" d="M3.4,15.4h-2V3.5c0-0.4,0.3-0.7,0.7-0.7l0,0h1.5c0.3,0.8,1.1,1.4,1.9,1.4h1.4
		c0.9,0,1.7-0.6,1.9-1.4h1.5c0.4,0,0.7,0.3,0.7,0.7v4.9c0.5,0.2,1,0.5,1.4,0.8V3.5c0-1.2-0.9-2.1-2.1-2.1H8.8C8.5,0.6,7.8,0,6.9,0
		H5.5C4.6,0,3.8,0.6,3.6,1.4H2.1C0.9,1.4,0,2.3,0,3.5v13.3h4C3.8,16.4,3.6,15.9,3.4,15.4 M5.5,1.4h1.4c0.4,0,0.7,0.3,0.7,0.7
		S7.3,2.8,6.9,2.8H5.5c-0.4,0-0.7-0.3-0.7-0.7S5.1,1.4,5.5,1.4"/>
</g>
</svg>
