<?xml version="1.0" encoding="utf-8"?>
<!-- Generator: Adobe Illustrator 27.9.0, SVG Export Plug-In . SVG Version: 6.00 Build 0)  -->
<svg version="1.0" id="Capa_1" xmlns="http://www.w3.org/2000/svg" xmlns:xlink="http://www.w3.org/1999/xlink" x="0px" y="0px"
	 width="40px" height="40px" viewBox="0 0 40 40" style="enable-background:new 0 0 40 40;" xml:space="preserve">
<style type="text/css">
	.st0{clip-path:url(#SVGID_00000077284760949830286530000003537266452918460599_);}
	.st1{fill:#FFFFFF;}
	.st2{fill:#231F20;}
	.st3{fill:#4463B3;}
	.st4{fill:#AFAFAF;}
	.st5{fill:#D1D3D4;}
	.st6{fill:#05B208;}
</style>
<g id="Grupo_276" transform="translate(0 0)">
	<g>
		<defs>
			<rect id="SVGID_1_" width="40" height="40"/>
		</defs>
		<clipPath id="SVGID_00000167388871552418815610000007658914745766442682_">
			<use xlink:href="#SVGID_1_"  style="overflow:visible;"/>
		</clipPath>
		<g id="Grupo_276-2" style="clip-path:url(#SVGID_00000167388871552418815610000007658914745766442682_);">
			<path id="Trazado_256" class="st1" d="M25.9,32.7c-1.8-1.4-2.5-3.9-2.4-6.2c-0.1-1.2,0.3-2.3,1-3.2c0.4-0.4,0.8-0.7,1.3-0.9
				c1.6-0.7,3.7-0.8,4.8,0.6c0.3,0.4,0.5,0.9,0.7,1.4c0.7,1.7,1.2,3.4,1.8,5.2c0.5,1.7,1.1,4.4-1.3,4.6
				C29.7,34.4,27.7,33.9,25.9,32.7"/>
			<path id="Trazado_257" class="st2" d="M31.1,34.3c-1.8,0.1-3.7-0.4-5.2-1.5c-1.7-1.5-2.6-3.9-2.5-6.2c-0.1-1.2,0.3-2.4,1-3.3
				c0.4-0.4,0.9-0.7,1.4-0.9c1.6-0.7,3.7-0.8,4.9,0.6c0.3,0.4,0.5,0.9,0.7,1.4c0.7,1.7,1.3,3.5,1.8,5.2c0.6,1.9,0.6,3.2,0.1,4
				c-0.3,0.5-0.9,0.8-1.4,0.7C31.6,34.3,31.3,34.3,31.1,34.3 M28.1,22c-0.8,0-1.5,0.2-2.3,0.5c-0.5,0.2-0.9,0.5-1.3,0.9
				c-0.7,0.9-1,2-1,3.2c-0.2,2.3,0.7,4.6,2.4,6.1c1.7,1.1,3.8,1.6,5.8,1.4c0.5,0,1-0.2,1.3-0.7c0.5-0.7,0.4-2-0.1-3.8
				c-0.5-1.7-1.1-3.5-1.8-5.2c-0.2-0.5-0.4-0.9-0.7-1.4C29.9,22.3,29,22,28.1,22z"/>
			<path id="Trazado_258" class="st3" d="M7.3,24l-5.1-2.2c1.8-4.1,3.9-6.5,5.3-7.5c1.8-1.6,6.3-1.7,10.4-1.9
				c1.3-0.1,2.6,0.1,3.9,0.4c4.8,1.4,9.3,8.7,9.3,8.7l-5.8,0.8c0,0,0.8,7.4,1.4,16.4c-6.4,1.2-12.8,1.6-19.3,1.1
				C7.4,39.8,7.5,25.3,7.3,24"/>
			<path id="Trazado_259" class="st1" d="M18.5,11.8l0.6,3.2c-0.4,1.2-1.5,2-2.8,1.9c-1.2-0.1-2.4-0.9-3-2l-0.7-6c0,0,1.4-1,0.5-4.4
				c1.7,0.5,3.6,0.5,5.3,0c0,0,1.4,3.6,1.3,5.2C19.8,10.8,19.3,11.6,18.5,11.8"/>
			<path id="Trazado_260" class="st2" d="M16.6,17c-0.1,0-0.2,0-0.3,0c-1.3-0.2-2.4-0.9-3.1-2c0,0,0,0,0,0l-0.7-6c0,0,0-0.1,0-0.1
				C12.8,8.7,13,8.4,13.1,8c0.3-1.1,0.3-2.3-0.1-3.4c0,0,0-0.1,0-0.1c0,0,0.1,0,0.1,0c1.7,0.5,3.5,0.5,5.3,0c0,0,0.1,0,0.1,0.1
				c0.1,0.1,1.4,3.6,1.4,5.3c0.1,0.9-0.5,1.7-1.3,2l0.6,3.2c0,0,0,0,0,0C18.8,16.2,17.8,17,16.6,17 M13.4,14.9
				c0.7,1.1,1.8,1.8,3,1.9c1.2,0.1,2.3-0.7,2.7-1.8l-0.6-3.2c0,0,0-0.1,0.1-0.1c0,0,0,0,0,0l0,0c0.8-0.2,1.3-1,1.2-1.8
				c-0.2-1.8-0.7-3.5-1.3-5.1c-1.7,0.5-3.5,0.5-5.2,0c0.7,3-0.3,4.1-0.5,4.3L13.4,14.9z"/>
			<path id="Trazado_261" class="st1" d="M13.7,8.7c-0.1-0.3-0.3-0.5-0.5-0.7c-0.2-0.1-0.5-0.2-0.8-0.3c-0.1,0-0.3,0-0.4,0
				c-0.1,0-0.2,0.1-0.3,0.1c-0.2,0.1-0.4,0.4-0.4,0.6c0,0.2,0,0.4,0.1,0.6c0.1,0.2,0.1,0.4,0.2,0.6c0.5,0.8,1.4,1.1,2.2,0.6l0,0"/>
			<path id="Trazado_262" class="st2" d="M13,10.7c-0.6,0-1.1-0.3-1.4-0.9c-0.1-0.2-0.2-0.4-0.2-0.6c-0.1-0.2-0.1-0.4-0.1-0.6
				c0.1-0.3,0.2-0.5,0.4-0.7c0.1-0.1,0.2-0.1,0.3-0.2c0.2,0,0.3,0,0.5,0c0.3,0,0.5,0.1,0.8,0.3c0.3,0.2,0.5,0.4,0.6,0.7
				c0,0,0,0.1,0,0.1l0,0c0,0-0.1,0-0.1,0c0,0,0,0,0,0c-0.1-0.3-0.3-0.5-0.5-0.6c-0.2-0.1-0.5-0.2-0.7-0.3c-0.1,0-0.3,0-0.4,0
				c-0.1,0-0.2,0.1-0.2,0.1c-0.2,0.1-0.3,0.3-0.4,0.5c0,0.2,0,0.4,0,0.6c0.1,0.2,0.1,0.4,0.2,0.6c0.4,0.8,1.4,1,2.1,0.6l0,0
				c0,0,0.1,0,0.1,0l0,0c0,0,0,0.1,0,0.1c0,0,0,0,0,0l0,0C13.6,10.6,13.3,10.6,13,10.7"/>
			<path id="Trazado_263" class="st2" d="M18.7,13.4c-0.7,0.2-1.5,0-2.1-0.4c-1-0.8-1-1.3-1-1.3c0.9,0.4,1.9,0.4,2.8,0.2L18.7,13.4z
				"/>
			<path id="Trazado_264" class="st2" d="M18.1,13.6c-0.6,0-1.1-0.2-1.5-0.5c-1-0.8-1-1.3-1-1.4c0,0,0-0.1,0-0.1c0,0,0,0,0.1,0
				c0.9,0.3,1.8,0.4,2.8,0.2c0,0,0,0,0.1,0c0,0,0,0,0,0.1l0.3,1.6c0,0,0,0.1-0.1,0.1C18.5,13.5,18.3,13.6,18.1,13.6 M15.7,11.8
				c0.2,0.5,0.5,0.8,0.9,1.1c0.6,0.4,1.3,0.6,2,0.4L18.3,12C17.4,12.2,16.5,12.1,15.7,11.8"/>
			<path id="Trazado_265" class="st1" d="M16.6,6.9c0,0,1.3,1.5,1.1,1.8C17.5,9,16.8,9,16.8,9"/>
			<path id="Trazado_266" class="st2" d="M16.9,9.1c0,0-0.1,0-0.1,0c0,0-0.1-0.1-0.1-0.1c0,0,0-0.1,0.1-0.1c0.2,0,0.7,0,0.9-0.2
				c0.1-0.2-0.5-1-1.1-1.7c0,0,0-0.1,0-0.1l0,0c0,0,0.1,0,0.1,0C17,7.2,18,8.4,17.8,8.8C17.6,9,17.2,9.1,16.9,9.1"/>
			<path id="Trazado_267" class="st2" d="M14.7,6.8c0.1-0.1,0.3,0.1,0.4,0.3c0.1,0.2,0,0.4-0.1,0.5c-0.1,0.1-0.3-0.1-0.4-0.3
				C14.5,7.1,14.5,6.9,14.7,6.8"/>
			<path id="Trazado_268" class="st2" d="M17.4,6.4c0.1-0.1,0.3,0.1,0.4,0.3c0.1,0.2,0,0.4-0.1,0.5c-0.1,0.1-0.3-0.1-0.4-0.3
				C17.2,6.7,17.3,6.5,17.4,6.4"/>
			<path id="Trazado_269" class="st2" d="M16.8,10.9c-0.6,0-1-0.4-1.3-0.9c-0.2-0.3-0.4-0.7-0.5-1.1c0,0,0-0.1,0.1-0.1
				c0,0,0.1,0,0.1,0.1c0,0,0.7,2.1,1.9,1.8c1.3-0.3,1.3-1.9,1.3-1.9c0,0,0-0.1,0.1-0.1c0,0,0.1,0,0.1,0.1c0,0,0,0,0,0
				c0,0,0,1.8-1.4,2.1C17,10.9,16.9,10.9,16.8,10.9"/>
			<path id="Trazado_270" class="st2" d="M22.7,6.6h16.4C39.6,6.6,40,7,40,7.5c0,0,0,0,0,0v22.8c0,0.5-0.4,0.9-0.8,0.9l0,0H22.7
				c-0.5,0-0.8-0.4-0.8-0.9V7.5C21.9,7,22.3,6.6,22.7,6.6"/>
			<rect id="Rectángulo_244" x="23" y="8.1" class="st1" width="15.9" height="21.6"/>
			<path id="Trazado_271" class="st2" d="M38.9,29.8H23c0,0-0.1,0-0.1-0.1c0,0,0,0,0,0V8.1c0,0,0-0.1,0.1-0.1l0,0h15.9
				c0,0,0.1,0,0.1,0.1L38.9,29.8C39,29.7,38.9,29.8,38.9,29.8 M23.1,29.6h15.7V8.2H23.1V29.6z"/>
			<path id="Trazado_272" class="st4" d="M35.1,5.8h-2.3c-0.2-1.1-1.2-1.8-2.2-1.6c-0.8,0.2-1.4,0.8-1.5,1.6h-2.3
				c-0.3,0-0.5,0.3-0.5,0.6c0,0,0,0,0,0v2c0,0.3,0.2,0.6,0.5,0.6h8.3c0.3,0,0.5-0.3,0.5-0.6v-2C35.6,6,35.4,5.8,35.1,5.8 M30.9,6
				c-0.3,0-0.5-0.2-0.5-0.5c0-0.3,0.2-0.5,0.5-0.5c0.3,0,0.5,0.2,0.5,0.5c0,0,0,0,0,0C31.4,5.8,31.2,6,30.9,6L30.9,6"/>
			<path id="Trazado_273" class="st5" d="M29.1,15h-3.8c0,0-0.1,0-0.1-0.1v-4.3c0,0,0-0.1,0.1-0.1h3.8c0,0,0.1,0,0.1,0.1L29.1,15
				C29.2,15,29.2,15,29.1,15 M25.3,14.9H29v-4.1h-3.7V14.9z"/>
			<path id="Trazado_274" class="st6" d="M30,11.7C30,11.8,30,11.8,30,11.7l-2.6,2.7c-0.1,0.1-0.2,0.1-0.2,0c-0.5-0.5-0.9-1-1.4-1.5
				c-0.1,0-0.1-0.1,0-0.2c0,0,0,0,0,0c0,0,0,0,0,0l0.4-0.3c0-0.1,0.1-0.1,0.2,0c0,0,0,0,0,0c0,0,0,0,0,0l0.8,0.9
				c0.1,0.1,0.2,0.1,0.2,0l1.9-2c0-0.1,0.1-0.1,0.2,0c0,0,0,0,0,0c0.1,0.1,0.2,0.2,0.3,0.3C30,11.6,30,11.6,30,11.7L30,11.7z"/>
			<path id="Trazado_275" class="st5" d="M36.9,12.2h-5.5c0,0-0.1,0-0.1-0.1c0,0,0-0.1,0.1-0.1h5.5C36.9,12.1,37,12.1,36.9,12.2
				C37,12.2,36.9,12.2,36.9,12.2"/>
			<path id="Trazado_276" class="st5" d="M35.4,13.6h-4c0,0-0.1,0-0.1-0.1l0,0c0,0,0-0.1,0.1-0.1h4C35.5,13.4,35.5,13.5,35.4,13.6
				C35.5,13.5,35.5,13.6,35.4,13.6L35.4,13.6"/>
			<path id="Trazado_277" class="st5" d="M29.1,20.9h-3.8c0,0-0.1,0-0.1-0.1v-4.3c0,0,0-0.1,0.1-0.1h3.8c0,0,0.1,0,0.1,0.1
				L29.1,20.9C29.2,20.9,29.2,20.9,29.1,20.9 M25.3,20.8H29v-4.1h-3.7V20.8z"/>
			<path id="Trazado_278" class="st6" d="M30,17.6c0,0,0,0.1-0.1,0.1l-2.5,2.6c0,0.1-0.1,0.1-0.2,0c0,0,0,0,0,0c0,0,0,0,0,0
				c-0.5-0.5-0.9-1-1.4-1.5c-0.1,0-0.1-0.1,0-0.2c0,0,0,0,0,0l0.4-0.3c0-0.1,0.1-0.1,0.2,0c0,0,0,0,0,0l0.8,0.9
				c0.1,0.1,0.2,0.1,0.2,0l1.9-2c0-0.1,0.1-0.1,0.2,0c0,0,0,0,0,0l0.3,0.3C30,17.4,30,17.5,30,17.6L30,17.6z"/>
			<path id="Trazado_279" class="st5" d="M36.9,18.1h-5.5c0,0-0.1,0-0.1-0.1s0-0.1,0.1-0.1l0,0h5.5C36.9,17.9,37,18,36.9,18.1
				C37,18.1,36.9,18.1,36.9,18.1"/>
			<path id="Trazado_280" class="st5" d="M35.4,19.4h-4c0,0-0.1,0-0.1-0.1c0,0,0-0.1,0.1-0.1h4C35.5,19.3,35.5,19.3,35.4,19.4
				L35.4,19.4C35.5,19.4,35.5,19.4,35.4,19.4"/>
			<path id="Trazado_281" class="st5" d="M29.1,26.8h-3.8c0,0-0.1,0-0.1-0.1v-4.3c0,0,0-0.1,0.1-0.1h3.8c0,0,0.1,0,0.1,0.1
				L29.1,26.8C29.2,26.7,29.2,26.8,29.1,26.8C29.1,26.8,29.1,26.8,29.1,26.8L29.1,26.8 M25.3,26.6H29v-4.1h-3.7V26.6z"/>
			<path id="Trazado_282" class="st5" d="M36.9,24h-5.5c0,0-0.1,0-0.1-0.1c0,0,0-0.1,0.1-0.1h5.5C36.9,23.8,37,23.9,36.9,24
				C37,23.9,36.9,24,36.9,24"/>
			<path id="Trazado_283" class="st5" d="M35.4,25.3h-4c0,0-0.1,0-0.1-0.1l0,0c0,0,0-0.1,0.1-0.1c0,0,0,0,0,0h4
				C35.5,25.2,35.5,25.2,35.4,25.3C35.5,25.3,35.5,25.3,35.4,25.3L35.4,25.3"/>
			<path id="Trazado_284" class="st1" d="M9.2,22.7l-2.5,6.2l5.5-5l3.5,1.2c-0.8,3.9-2.8,7.5-5.6,10.1c-4.8,4.6-9.8,3.8-10-0.6
				s2.6-12.8,2.6-12.8"/>
			<path id="Trazado_285" class="st2" d="M3.9,38.5c-0.6,0-1.1-0.1-1.7-0.3C0.9,37.6,0,36.2,0,34.7C-0.3,30.4,2.6,22,2.7,21.9
				c0,0,0.1-0.1,0.1-0.1c0,0,0.1,0.1,0.1,0.1c0,0.1-2.9,8.5-2.6,12.7c0,1.5,0.8,2.8,2.1,3.3c2.1,0.9,5.1-0.2,7.8-2.8
				c2.8-2.7,4.7-6.2,5.6-10L12.2,24l-5.5,5c0,0-0.1,0-0.1,0c0,0,0-0.1,0-0.1l2.5-6.2c0,0,0.1-0.1,0.1-0.1s0.1,0.1,0.1,0.1
				c0,0,0,0,0,0l-2.3,5.8l5.2-4.8c0,0,0.1,0,0.1,0l3.5,1.3c0,0,0.1,0.1,0.1,0.1c-0.8,3.9-2.8,7.5-5.6,10.2
				C8.5,37.1,6.3,38.3,3.9,38.5"/>
			<path id="Trazado_286" class="st2" d="M13.6,14.9l6.3,5.2l0.2,0.3l0.8,1.5l-1.6-0.5L19,21.3l-6.3-5.2L13.6,14.9z"/>
			<path id="Trazado_287" class="st2" d="M20.9,22L20.9,22L19,21.4c0,0,0,0,0,0l-6.3-5.2c0,0,0,0,0-0.1c0,0,0,0,0-0.1l0.9-1.2
				c0,0,0.1,0,0.1,0l6.3,5.2c0,0,0,0,0,0l1,1.8C21,21.9,21,22,20.9,22C21,22,21,22,20.9,22 M19,21.3l1.7,0.5l-0.9-1.6L13.6,15
				l-0.8,1.1L19,21.3z"/>
			<path id="Trazado_288" class="st3" d="M20.1,20.4l0.8,1.5l-1.6-0.5L20.1,20.4z"/>
			<path id="Trazado_289" class="st2" d="M20.9,22L20.9,22l-1.6-0.5c0,0,0,0-0.1-0.1c0,0,0-0.1,0-0.1l0.8-1c0,0,0,0,0.1,0
				c0,0,0.1,0,0.1,0l0.8,1.5C21,22,21,22,20.9,22C21,22,20.9,22,20.9,22 M19.5,21.4l1.3,0.4l-0.7-1.2L19.5,21.4z"/>
			<path id="Trazado_290" class="st1" d="M20.7,21.8L20.7,21.8c0,0,0.1,0,0.1,0L21,22c0,0,0,0.1,0,0.1l0,0c0,0-0.1,0-0.1,0l-0.3-0.2
				C20.6,21.8,20.6,21.8,20.7,21.8C20.7,21.8,20.7,21.8,20.7,21.8"/>
			<path id="Trazado_291" class="st2" d="M21,22.2c0,0-0.1,0-0.1,0l-0.3-0.2c0,0-0.1-0.1-0.1-0.1c0-0.1,0.1-0.2,0.1-0.2
				c0,0,0.1,0,0.1,0l0.3,0.2c0,0,0.1,0.1,0.1,0.1c0,0,0,0.1,0,0.1C21.1,22.2,21,22.2,21,22.2"/>
			<path id="Trazado_292" class="st2" d="M11.3,14.7l0.7-0.9c0.1-0.2,0.4-0.2,0.5-0.1c0,0,0,0,0,0l3,2.5l-1.1,1.5l-3-2.5
				C11.2,15.1,11.2,14.8,11.3,14.7z"/>
			<path id="Trazado_293" class="st2" d="M14.3,17.8C14.3,17.8,14.3,17.8,14.3,17.8l-3-2.5c-0.2-0.2-0.2-0.5-0.1-0.7c0,0,0,0,0,0
				l0,0l0.7-0.9c0.2-0.2,0.4-0.2,0.6-0.1l3,2.5c0,0,0,0.1,0,0.1L14.3,17.8C14.4,17.8,14.4,17.8,14.3,17.8L14.3,17.8z M12.2,13.7
				L12.2,13.7c-0.1,0-0.2,0-0.2,0.1l-0.7,0.9c-0.1,0.1-0.1,0.3,0,0.4c0,0,0,0,0,0l0,0l2.9,2.4l1-1.4l-2.9-2.4
				C12.4,13.7,12.3,13.7,12.2,13.7"/>
			<path id="Trazado_294" class="st2" d="M13.2,17.4C13.2,17.4,13.1,17.4,13.2,17.4c-0.1-0.1-1.6-1.3-1.8-1.5
				c-0.2-0.2-0.1-0.7-0.1-0.7c0,0,0.1-0.1,0.1-0.1c0,0,0.1,0.1,0.1,0.1l0,0c0,0.1-0.1,0.4,0.1,0.6c0.2,0.2,1.7,1.5,1.7,1.5
				C13.3,17.3,13.3,17.3,13.2,17.4C13.2,17.4,13.2,17.4,13.2,17.4"/>
			<path id="Trazado_295" class="st1" d="M11.8,15.6C11.8,15.6,11.8,15.6,11.8,15.6c-0.1-0.1-0.1-0.1-0.1-0.1l0,0l1.1-1.4
				c0,0,0.1,0,0.1,0c0,0,0,0.1,0,0.1c0,0,0,0,0,0l0,0L11.8,15.6C11.9,15.6,11.8,15.6,11.8,15.6"/>
			<path id="Trazado_296" class="st1" d="M15.6,25.5c0.1-0.3,0.2-0.7,0.3-1c0,0,1.4,0.1,1.7-0.3c0.3-0.4,1.2-3.6,0.9-4.1
				c-0.5-0.6-1.1-1.1-1.7-1.4c-0.6,0-1.1,0-1.7,0.1l1.1-1.1c0.8,0.5,1.6,0.8,2.5,1c0.8-0.1,1-0.4,0.6-0.9C18,17,16.7,16.4,15.4,16
				c-1,0.6-2,1.5-2.7,2.5c0,0.3-1.7,6.2-1.4,6.9"/>
			<path id="Trazado_297" class="st2" d="M15.6,25.6C15.6,25.6,15.5,25.6,15.6,25.6c-0.1,0-0.1-0.1-0.1-0.1c0,0,0,0,0,0l0,0
				c0.1-0.3,0.2-0.6,0.3-1c0,0,0-0.1,0.1-0.1c0.4,0,1.4,0,1.6-0.3c0.3-0.4,1.1-3.6,0.9-4c-0.5-0.6-1-1.1-1.7-1.4
				c-0.6,0-1.1,0-1.6,0.1c0,0-0.1,0-0.1,0c0,0,0-0.1,0-0.1l1.1-1.1c0,0,0.1,0,0.1,0c0.8,0.5,1.6,0.8,2.5,1c0.4,0,0.6-0.1,0.7-0.3
				s-0.1-0.3-0.2-0.4c-1.1-0.8-2.4-1.4-3.7-1.8c-1,0.6-1.9,1.5-2.6,2.4c0,0.1-0.1,0.3-0.2,0.8c-0.4,1.5-1.4,5.5-1.2,6
				c0,0,0,0.1,0,0.1c0,0-0.1,0-0.1,0c-0.3-0.5,0.4-3.2,1.1-6.1c0.1-0.4,0.2-0.7,0.2-0.8c0.7-1,1.7-1.9,2.8-2.6
				c1.4,0.3,2.7,1,3.9,1.8c0.2,0.2,0.3,0.4,0.2,0.6c-0.1,0.2-0.4,0.3-0.8,0.4c-0.9-0.1-1.7-0.5-2.5-1l-0.8,0.9
				c0.5-0.1,1-0.1,1.5-0.1c0.7,0.3,1.3,0.8,1.8,1.5c0.3,0.6-0.6,3.8-0.9,4.2c-0.3,0.4-1.4,0.4-1.7,0.4
				C15.9,24.9,15.8,25.3,15.6,25.6C15.6,25.6,15.6,25.6,15.6,25.6"/>
			<path id="Trazado_298" class="st1" d="M14.5,20.2C15.3,20,16,20,16.8,20c0.6,0.4,1.1,0.9,1.6,1.4"/>
			<path id="Trazado_299" class="st2" d="M18.3,21.5C18.3,21.5,18.3,21.5,18.3,21.5c-0.5-0.6-1-1-1.6-1.4c-0.7,0-1.5,0.1-2.2,0.2
				c0,0-0.1,0-0.1-0.1c0,0,0-0.1,0.1-0.1c0,0,0,0,0,0l0,0c0.7-0.2,1.5-0.2,2.3-0.2c0.6,0.4,1.1,0.9,1.6,1.4
				C18.4,21.4,18.4,21.4,18.3,21.5C18.4,21.5,18.4,21.5,18.3,21.5C18.4,21.5,18.3,21.5,18.3,21.5"/>
			<path id="Trazado_300" class="st1" d="M15.9,24.5c0.2-0.5,0.3-1.1,0.2-1.6"/>
			<path id="Trazado_301" class="st2" d="M15.9,24.6C15.8,24.6,15.8,24.6,15.9,24.6c-0.1-0.1-0.1-0.1-0.1-0.1
				c0.2-0.5,0.2-1.1,0.2-1.6c0,0,0-0.1,0.1-0.1c0,0,0,0,0,0l0,0c0,0,0.1,0,0.1,0.1c0,0,0,0,0,0l0,0C16.2,23.5,16.1,24,15.9,24.6
				C15.9,24.6,15.9,24.6,15.9,24.6"/>
			<path id="Trazado_302" class="st1" d="M14.9,23c0.1,0,1.6,0,1.7,0"/>
			<path id="Trazado_303" class="st2" d="M16.4,23h-0.6c-0.3,0-0.8,0-0.8,0c0,0-0.1,0-0.1-0.1c0,0,0-0.1,0.1-0.1c0,0,0,0,0,0
				c0.3,0,0.6,0,0.9,0c0.4,0,0.8,0,0.8,0c0,0,0.1,0,0.1,0.1c0,0,0,0.1-0.1,0.1C16.5,23,16.4,23,16.4,23"/>
			<path id="Trazado_304" class="st1" d="M14.3,21.5c0.6-0.2,1.3-0.2,1.9-0.2c0.6,0.1,1.7,1.5,1.8,1.7"/>
			<path id="Trazado_305" class="st2" d="M18,23.1C18,23.1,18,23,18,23.1c-0.1,0-0.1-0.1-0.2-0.1c-0.3-0.3-1.2-1.4-1.7-1.5
				c-0.6,0-1.3,0-1.9,0.2c0,0-0.1,0-0.1-0.1c0,0,0,0,0,0c0,0,0-0.1,0.1-0.1c0,0,0,0,0,0l0,0c0.6-0.2,1.3-0.2,2-0.2
				c0.7,0.4,1.3,0.9,1.8,1.6c0,0.1,0.1,0.1,0.1,0.1C18.1,22.9,18.1,23,18,23.1C18.1,23,18,23.1,18,23.1"/>
			<path id="Trazado_306" class="st1" d="M36.5,31.1c0-0.3,0.1-0.5,0.1-0.8c0-0.6-0.1-1.1-0.2-1.6c-0.1-0.2-0.2-0.4-0.4-0.6
				c-0.2-0.2-0.5-0.1-0.6,0c-0.1,0.2-0.1,0.4,0,0.6c0.1,0.6,0.1,1.1,0.1,1.7c0-0.8-0.2-1.5-0.6-2.2c-0.1-0.2-0.2-0.3-0.3-0.4
				c-0.1-0.1-0.3-0.1-0.5,0c-0.2,0.2-0.2,0.5-0.2,0.7c0.1,0.7,0.1,1.4,0,2c0-0.6,0-1.2-0.1-1.8c0-0.4-0.3-0.7-0.6-0.9
				c-0.1,0-0.2,0-0.2,0c-0.2,0.1-0.3,0.2-0.3,0.4c0,0.2,0,0.4,0,0.5c0.1,0.7,0,1.4-0.1,2c0.1-0.6,0.1-1.2-0.1-1.8
				c0-0.2-0.1-0.5-0.3-0.6c-0.1-0.2-0.4-0.3-0.6-0.2c-0.2,0.1-0.3,0.2-0.3,0.4c0,0.2,0,0.4,0,0.5c0,0.7-0.1,1.4-0.4,2
				c-0.3,0.5-0.4,1.1-0.4,1.7c0.1,0.6,0.5,1.1,1.1,1.4c0.6,0.2,1.2,0.2,1.7,0.1c1.8-0.2,3.4-1.5,4.2-3.3"/>
			<path id="Trazado_307" class="st2" d="M32.5,34.6c-0.3,0-0.7-0.1-1-0.2c-0.6-0.2-1-0.8-1.1-1.4c0-0.5,0.1-1.1,0.4-1.6l0.1-0.2
				c0.2-0.6,0.4-1.3,0.4-2v-0.1c0-0.2,0-0.3,0-0.5c0-0.3,0.3-0.6,0.6-0.5c0.2,0,0.3,0.1,0.4,0.3c0.1,0.2,0.2,0.3,0.2,0.5
				c0,0,0-0.1,0-0.1v0c0-0.2,0-0.3,0-0.5c0-0.2,0.2-0.4,0.4-0.4c0.1,0,0.2,0,0.3,0c0.3,0.1,0.5,0.4,0.7,1c0,0,0,0,0,0.1
				c0-0.1,0-0.2,0-0.3c-0.1-0.3,0-0.6,0.2-0.8c0.2-0.1,0.4-0.1,0.6,0c0.2,0.1,0.3,0.2,0.4,0.4c0.2,0.4,0.4,0.8,0.4,1.2
				c0-0.2-0.1-0.4-0.1-0.7c-0.1-0.2-0.1-0.5,0-0.7c0.1-0.1,0.2-0.2,0.3-0.2c0.2,0,0.3,0,0.4,0.1c0.2,0.2,0.3,0.4,0.4,0.7
				c0.2,0.5,0.3,1.1,0.3,1.7c0,0.1,0,0.2,0,0.2c0,0.2,0,0.4-0.1,0.6c0,0,0,0.1-0.1,0.1c0,0,0,0,0,0c0,0-0.1,0-0.1-0.1c0,0,0,0,0,0
				c0,0,0,0,0,0c0-0.2,0-0.4,0.1-0.6c0-0.1,0-0.1,0-0.2c0-0.5-0.1-1.1-0.2-1.6c0-0.2-0.2-0.4-0.3-0.6c-0.1-0.1-0.2-0.1-0.3-0.1
				c-0.1,0-0.1,0-0.2,0.1c-0.1,0.2-0.1,0.4,0,0.5c0.1,0.6,0.2,1.2,0.1,1.7c0,0,0,0.1-0.1,0.1c0,0-0.1,0-0.1-0.1
				c0-0.8-0.2-1.5-0.6-2.2c-0.1-0.1-0.2-0.3-0.3-0.3c-0.1-0.1-0.3-0.1-0.4,0c-0.2,0.1-0.2,0.4-0.1,0.7c0.1,0.7,0.1,1.4,0,2.1
				c0,0,0,0.1-0.1,0.1c0,0-0.1,0-0.1-0.1c0-0.6,0-1.2-0.1-1.7c-0.1-0.5-0.3-0.8-0.5-0.9c-0.1,0-0.1,0-0.2,0
				c-0.1,0.1-0.2,0.2-0.2,0.3c0,0.2,0,0.3,0,0.5v0c0.1,0.7,0,1.4-0.1,2.1c0,0-0.1,0.1-0.1,0.1c0,0,0,0,0,0c0,0-0.1,0-0.1-0.1
				c0,0,0,0,0,0l0,0c0.1-0.6,0.1-1.2-0.1-1.7c0-0.2-0.1-0.4-0.2-0.6c-0.1-0.2-0.3-0.2-0.5-0.2c-0.1,0.1-0.2,0.2-0.2,0.4
				c0,0.1,0,0.3,0,0.4v0.1c0,0.7-0.1,1.4-0.4,2l-0.1,0.2c-0.2,0.5-0.4,1-0.4,1.5c0.1,0.6,0.5,1.1,1,1.3c0.5,0.2,1.1,0.2,1.7,0.1
				c1.8-0.2,3.4-1.4,4.1-3.2c0,0,0.1-0.1,0.1,0c0,0,0.1,0.1,0,0.1c-0.7,1.8-2.3,3.1-4.2,3.3C33,34.6,32.8,34.6,32.5,34.6"/>
			<path id="Trazado_308" class="st2" d="M4,31.1C3.9,31.1,3.9,31.1,4,31.1C3.9,31,3.9,31,3.9,31l2.7-2.2c0,0,0.1,0,0.1,0l0,0
				c0,0,0,0.1,0,0.1c0,0,0,0,0,0L4,31.1C4,31.1,4,31.1,4,31.1"/>
			<path id="Trazado_309" class="st2" d="M11.4,7.5C11.4,7.5,11.4,7.4,11.4,7.5c-0.3-1.1-0.6-2.2-0.8-3.3l0-0.1
				c-0.1-0.5-0.2-1-0.2-1.4c0-0.5,0.4-0.6,0.7-0.5c0-0.5,0.3-1,0.7-1.3c1-0.7,2-0.4,3.1-0.1C15.6,1,16.3,1.1,17,1
				c0.4-0.1,0.9-0.3,1.2-0.5c0.1-0.1,0.3-0.1,0.4-0.2s1.6-0.7,2,0c0.1,0.2,0,0.5-0.1,0.6c-0.2,0.4-0.4,0.8-0.6,1.1
				c0.2-0.1,0.4-0.2,0.6-0.3c0.4-0.2,0.8-0.2,1.1,0C21.8,1.9,21.9,2,22,2.1c0.2,0.3,0.1,0.7-0.2,1.2c-0.3,0.4-0.6,0.8-0.9,1.2
				c0.1-0.1,0.2-0.1,0.3-0.2c0.3-0.2,0.6-0.4,1-0.3c0.1,0,0.2,0.1,0.3,0.2c0.1,0.3-0.1,0.5-0.2,0.6c-0.6,0.8-1.3,1.5-2.2,1.9
				c0,0-0.1,0-0.1,0c0,0,0-0.1,0-0.1l0,0c0.8-0.5,1.5-1.1,2.1-1.9c0.1-0.2,0.2-0.3,0.1-0.4c0-0.1-0.1-0.1-0.2-0.1
				c-0.3,0-0.6,0.1-0.9,0.3c-0.2,0.2-0.4,0.3-0.7,0.3c0,0-0.1,0-0.1,0c0,0,0-0.1,0-0.1c0.4-0.5,0.8-0.9,1.2-1.5
				c0.3-0.4,0.4-0.8,0.2-1C21.7,2.1,21.6,2,21.5,2c-0.3-0.1-0.7-0.1-1,0c-0.3,0.2-0.7,0.3-0.9,0.6c0,0-0.1,0-0.1,0c0,0,0-0.1,0-0.1
				c0.4-0.5,0.7-1,0.9-1.5c0.1-0.1,0.1-0.3,0.1-0.5c-0.2-0.5-1.3-0.2-1.8,0.1c-0.1,0.1-0.3,0.1-0.4,0.2c-0.4,0.2-0.8,0.4-1.3,0.5
				c-0.7,0.1-1.4-0.1-2.1-0.3c-1-0.3-2-0.6-2.9,0.1c-0.4,0.3-0.6,0.7-0.6,1.2c0,0,0,0,0,0.1c0,0,0,0-0.1,0c-0.4,0-0.6,0-0.6,0.4
				c0,0.5,0.1,0.9,0.2,1.4l0,0.1c0.2,1.1,0.5,2.2,0.7,3.2C11.5,7.4,11.5,7.4,11.4,7.5C11.4,7.5,11.4,7.5,11.4,7.5L11.4,7.5L11.4,7.5
				z"/>
		</g>
	</g>
</g>
</svg>
