<?xml version="1.0" encoding="utf-8"?>
<!-- Generator: Adobe Illustrator 27.9.0, SVG Export Plug-In . SVG Version: 6.00 Build 0)  -->
<svg version="1.0" id="Capa_1" xmlns="http://www.w3.org/2000/svg" xmlns:xlink="http://www.w3.org/1999/xlink" x="0px" y="0px"
	 width="15.5px" height="16px" viewBox="0 0 15.5 16" style="enable-background:new 0 0 15.5 16;" xml:space="preserve">
<style type="text/css">
	.st0{fill:#407FC1;}
</style>
<path class="st0" d="M14.3,4.7C14.2,3.8,14,2.9,13.8,2c0-0.2-0.1-0.3-0.1-0.4c-0.1-0.3-0.5-0.6-0.9-0.5c-0.4,0.2-0.6,0.5-0.5,0.9
	c0.1,0.4,0.2,0.9,0.3,1.3C10.5,1.7,8,0.8,5.5,1.8C3,2.7,1.2,5.2,1.1,8C1,8.9,2.4,8.9,2.5,8C2.6,5.8,4,3.9,6.1,3.2s4.1,0,5.8,1.4
	c-0.4,0-0.8,0.1-1.2,0.2c-0.2,0-0.3,0.1-0.4,0.1C9.9,4.9,9.6,5.3,9.7,5.7c0.2,0.4,0.5,0.6,0.9,0.5c0.9-0.2,1.9-0.3,2.8-0.5
	c0.2,0,0.3-0.1,0.4-0.1C14.2,5.6,14.4,5.1,14.3,4.7z"/>
<path class="st0" d="M1.1,11.2c0.2,0.9,0.3,1.8,0.5,2.8c0,0.2,0.1,0.3,0.1,0.4c0.1,0.3,0.5,0.6,0.9,0.5C3,14.7,3.1,14.4,3,14
	c-0.1-0.4-0.2-0.9-0.3-1.3c2,1.6,4.6,2.4,7.1,1.5c2.6-0.9,4.3-3.4,4.5-6.2C14.4,7,13,7,12.9,8c-0.1,2.2-1.5,4.1-3.5,4.8
	c-2.1,0.7-4.1,0-5.8-1.4c0.3-0.1,0.8-0.2,1.1-0.2c0.2,0,0.3-0.1,0.4-0.1c0.3-0.1,0.6-0.5,0.5-0.9C5.5,9.9,5.1,9.7,4.8,9.8
	C3.8,10,2.9,10.1,2,10.3c-0.2,0-0.3,0.1-0.4,0.1C1.2,10.4,1,10.8,1.1,11.2z"/>
</svg>
