<?xml version="1.0" encoding="utf-8"?>
<!-- Generator: Adobe Illustrator 27.9.0, SVG Export Plug-In . SVG Version: 6.00 Build 0)  -->
<svg version="1.0" id="Capa_1" xmlns="http://www.w3.org/2000/svg" xmlns:xlink="http://www.w3.org/1999/xlink" x="0px" y="0px"
	 width="40px" height="40px" viewBox="0 0 40 40" style="enable-background:new 0 0 40 40;" xml:space="preserve">
<style type="text/css">
	.st0{clip-path:url(#SVGID_00000129904797948732993790000009575991597885238194_);}
	.st1{fill:#E6E6E6;}
	.st2{fill:#FFFFFF;}
	.st3{fill:#05B208;}
	.st4{fill:#F2F2F2;}
	.st5{fill:#231F20;}
	.st6{fill:#4463B3;}
</style>
<g id="Grupo_282" transform="translate(0 0)">
	<g>
		<defs>
			<rect id="SVGID_1_" x="0" width="40" height="40"/>
		</defs>
		<clipPath id="SVGID_00000096038288829754406940000014549070310549787307_">
			<use xlink:href="#SVGID_1_"  style="overflow:visible;"/>
		</clipPath>
		<g id="Grupo_282-2" style="clip-path:url(#SVGID_00000096038288829754406940000014549070310549787307_);">
			<path id="Trazado_310" class="st1" d="M17.3,17.2H1.2C0.5,17.2,0,16.7,0,16V1.2C0,0.5,0.5,0,1.2,0h16.1c0.6,0,1.2,0.5,1.2,1.2V16
				C18.5,16.7,17.9,17.2,17.3,17.2"/>
			<path id="Trazado_311" class="st2" d="M13.9,16.4H2c-0.6,0-1.2-0.5-1.2-1.2V1.9c0-0.6,0.5-1.2,1.2-1.2h14.5
				c0.6,0,1.2,0.5,1.2,1.2v10.7C17.7,14.7,16,16.4,13.9,16.4"/>
			<path id="Trazado_312" class="st3" d="M9.2,3.4c2.9,0,5.3,2.3,5.3,5.2s-2.4,5.2-5.3,5.2C6.3,13.8,4,11.5,4,8.6
				C4,5.7,6.3,3.4,9.2,3.4C9.2,3.4,9.2,3.4,9.2,3.4"/>
			<path id="Trazado_313" class="st2" d="M11.5,8.3L9.7,6.2C9.5,6,9.2,6,9,6.1c0,0,0,0,0,0c0,0,0,0-0.1,0.1L7,8.3
				C6.8,8.5,6.9,8.9,7.1,9c0.2,0.2,0.5,0.1,0.7,0l1-1.1v2.7c0,0.3,0.3,0.5,0.5,0.5c0.3,0,0.5-0.2,0.5-0.5V8l0.8,1
				c0.2,0.2,0.5,0.3,0.7,0.1C11.6,8.9,11.6,8.6,11.5,8.3L11.5,8.3z"/>
			<path id="Trazado_314" class="st4" d="M5.5,19.8c-0.5,0-1-0.4-1-1c0-0.5,0.4-1,1-1s1,0.4,1,1l0,0C6.5,19.4,6,19.8,5.5,19.8
				C5.5,19.8,5.5,19.8,5.5,19.8 M5.5,18c-0.5,0-0.8,0.4-0.8,0.8c0,0.5,0.4,0.8,0.8,0.8c0.5,0,0.8-0.4,0.8-0.8C6.3,18.4,6,18,5.5,18"
				/>
			<path id="Trazado_315" class="st4" d="M5.9,18.8l-0.3-0.4c0,0-0.1,0-0.1,0l0,0l-0.3,0.4c0,0,0,0.1,0,0.1c0,0,0,0,0,0
				c0,0,0.1,0,0.1,0l0.2-0.2v0.5c0,0,0,0.1,0.1,0.1s0.1,0,0.1-0.1c0,0,0,0,0,0v-0.5l0.1,0.2c0,0,0.1,0,0.1,0
				C5.9,18.9,5.9,18.9,5.9,18.8L5.9,18.8L5.9,18.8z"/>
			<path id="Trazado_316" class="st4" d="M22.4,9.1c-0.7,0-1.2-0.5-1.2-1.2s0.5-1.2,1.2-1.2s1.2,0.5,1.2,1.2c0,0,0,0,0,0
				C23.6,8.6,23,9.1,22.4,9.1 M22.4,6.9c-0.6,0-1,0.5-1,1c0,0.6,0.5,1,1,1c0.6,0,1-0.5,1-1C23.4,7.4,22.9,6.9,22.4,6.9
				C22.4,6.9,22.4,6.9,22.4,6.9L22.4,6.9z"/>
			<path id="Trazado_317" class="st4" d="M22.8,7.9l-0.4-0.5c0,0-0.1-0.1-0.2,0c0,0,0,0,0,0c0,0,0,0,0,0l-0.4,0.5c0,0,0,0.1,0,0.2
				c0,0,0.1,0,0.2,0l0.2-0.2v0.6c0,0.1,0.1,0.1,0.1,0.1c0.1,0,0.1,0,0.1-0.1l0,0V7.8L22.7,8c0,0,0.1,0,0.2,0
				C22.9,8,22.9,7.9,22.8,7.9L22.8,7.9z"/>
			<path id="Trazado_318" class="st2" d="M20.7,21.3l-2,0.9c0,0-3.8-4.2-4.3-5c-0.4-0.8-0.7-1.7-0.7-2.6c0-0.3-0.1-0.5-0.2-0.8
				c-0.4-0.7-0.9-1.4-1.5-2c-0.1-0.1-0.3-0.2-0.4-0.3c-0.2,0-0.4,0-0.4,0.2c0,0.1,0,0.2-0.1,0.2c-0.1,0.2-0.3,0.3-0.5,0.4
				c-0.4,0.3-0.7,0.7-0.7,1.2c-0.2,1.8,0.3,3.6,1.4,5c1.1,1.7,4.4,9.1,6.4,9.5c1.9,0.3,5.1-1.4,5.1-1.4"/>
			<path id="Trazado_319" class="st5" d="M17.7,28.2c-1.5-0.2-3.6-4.3-5.2-7.2c-0.5-1-1-1.9-1.3-2.3c-1.1-1.4-1.7-3.2-1.5-5
				c0.1-0.5,0.3-1,0.8-1.3c0,0,0.1,0,0.1-0.1c0.1-0.1,0.3-0.2,0.3-0.3c0,0,0-0.1,0-0.1c0,0,0-0.1,0-0.1c0.1-0.2,0.3-0.3,0.6-0.2
				c0.2,0.1,0.4,0.2,0.5,0.3c0.6,0.6,1.1,1.3,1.5,2c0.1,0.3,0.2,0.5,0.2,0.8c0,0.2,0.1,0.4,0.1,0.5c0,0.7,0.2,1.4,0.6,2
				c0.5,0.7,3.8,4.4,4.3,4.9l1.9-0.9l0,0c0,0,0.1,0,0.1,0c0,0,0,0.1,0,0.1c0,0,0,0,0,0l-2,0.9c0,0-0.1,0-0.1,0
				c-0.2-0.2-3.8-4.2-4.3-5c-0.4-0.6-0.6-1.4-0.6-2.1c0-0.2,0-0.4-0.1-0.5c0-0.3-0.1-0.5-0.2-0.8c-0.4-0.7-0.8-1.4-1.4-2
				c-0.1-0.1-0.2-0.2-0.4-0.3c-0.1,0-0.3,0-0.3,0.1c0,0,0,0.1,0,0.1c0,0,0,0.1,0,0.1c-0.1,0.2-0.2,0.3-0.4,0.4l-0.1,0.1
				c-0.4,0.3-0.6,0.7-0.7,1.1c-0.2,1.8,0.3,3.5,1.4,4.9c0.3,0.4,0.8,1.3,1.3,2.3c1.4,2.7,3.6,6.9,5,7.1c1.9,0.3,5-1.4,5.1-1.4
				c0,0,0.1,0,0.1,0c0,0,0,0.1,0,0.1c-1.5,0.8-3,1.3-4.7,1.4C18.1,28.2,17.9,28.2,17.7,28.2"/>
			<path id="Trazado_320" class="st2" d="M27.8,10.8c-1.1-1.5-1.4-3.4-0.9-5.2c0.3-1,1.5-1.4,2.5-1.5c1.6-0.3,3.8-0.2,4.6,1.6
				c0,0.1,0.1,0.1,0.1,0.2c0.1,0,0.2,0.1,0.2,0.1c0.3,0.1,0.6,0.4,0.7,0.7c0.5,1.4,0.1,2.5-0.3,3.8c-0.3,1.2-1,2.6-2.3,3
				C30.4,14,28.7,12.3,27.8,10.8"/>
			<path id="Trazado_321" class="st5" d="M27.7,10.9c-1.1-1.6-1.4-3.5-0.9-5.3c0.4-1.1,1.9-1.5,2.5-1.6C31,3.7,33.2,3.8,34,5.6v0
				c0,0.1,0,0.1,0.1,0.1c0,0,0.1,0,0.1,0l0.1,0C34.6,6,34.9,6.3,35,6.6c0.4,1.1,0.3,2.3-0.1,3.4c0,0.1-0.1,0.3-0.1,0.4
				c-0.3,1.2-1,2.7-2.3,3.1c-0.2,0.1-0.5,0.1-0.8,0.1C30.1,13.7,28.6,12.3,27.7,10.9 M32.3,13.4c1.2-0.4,1.9-1.8,2.2-2.9
				c0-0.2,0.1-0.3,0.1-0.4c0.4-1,0.5-2.2,0.2-3.3c-0.2-0.4-0.4-0.6-0.6-0.7l-0.1,0C34.1,6,34,6,34,5.9c-0.1-0.1-0.1-0.1-0.2-0.2
				C33.1,4,31,3.9,29.3,4.1c-0.6,0.1-2.1,0.4-2.4,1.5c-0.5,1.8-0.2,3.7,0.9,5.2C28.9,12.4,30.6,13.9,32.3,13.4L32.3,13.4z"/>
			<path id="Trazado_322" class="st2" d="M34.2,23.6l-1.7,10.3c0,0,6.8,1.7,7.4-0.3s-1.9-9.3-1.9-9.3L34.2,23.6z"/>
			<path id="Trazado_323" class="st5" d="M32.4,34c0,0-0.1-0.1-0.1-0.1l1.7-10.3c0,0,0,0,0-0.1c0,0,0,0,0.1,0l3.7,0.7
				c0,0,0.1,0,0.1,0.1c0.1,0.3,2.5,7.3,1.9,9.3c-0.2,0.8-1.4,1.1-2.7,1.1C35.6,34.6,34,34.4,32.4,34 M34.2,23.7l-1.7,10.1
				c0.8,0.2,6.7,1.5,7.2-0.3c0.5-1.9-1.7-8.5-1.9-9.2L34.2,23.7z"/>
			<path id="Trazado_324" class="st5" d="M35.9,40c0-1.5,0.1-2.6,0.1-2.6l-13.9-3.7L20.7,40H35.9z"/>
			<path id="Trazado_325" class="st2" d="M26.5,12.2c0,0-0.8,0.2-1.1-0.2c-0.2-0.4,1.1-2.1,1.1-2.1"/>
			<path id="Trazado_326" class="st5" d="M25.4,12c-0.2-0.4,0.9-1.9,1.2-2.2c0,0,0.1,0,0.1,0c0,0,0,0.1,0,0.1
				c-0.6,0.8-1.2,1.8-1.1,2c0.1,0.3,0.7,0.2,1,0.2c0.1,0,0.1,0,0.1,0.1c0,0.1,0,0.1-0.1,0.1l0,0c-0.1,0-0.3,0-0.4,0
				C25.8,12.4,25.5,12.2,25.4,12"/>
			<path id="Trazado_327" class="st2" d="M29.9,7.2c-0.1,1.3,0,2.7,0.4,4c0.3,0.9,1,1.5,1.9,1.7l-0.2,3.5l-4.3,1.2l0.6-2.9
				c-0.4,0.2-2.3,0-2.3-0.8c0-1.2,0.1-2.4,0.2-3.6c0.1-0.9,0-2.2,0.8-2.7C27.9,7,29.9,7.2,29.9,7.2"/>
			<path id="Trazado_328" class="st5" d="M27.7,17.6C27.7,17.6,27.7,17.5,27.7,17.6l0.5-2.9c-0.7,0.1-1.3,0-1.9-0.3
				c-0.2-0.1-0.4-0.3-0.4-0.6c0-1.2,0.1-2.4,0.2-3.6c0-0.1,0-0.3,0-0.5c0-0.8,0.1-1.8,0.8-2.3c0.8-0.5,2.9-0.4,2.9-0.4
				c0,0,0,0,0.1,0c0,0,0,0,0,0.1c-0.1,1.3,0,2.6,0.4,3.9c0.3,0.9,1,1.5,1.8,1.6c0.1,0,0.1,0,0.1,0.1l-0.2,3.4c0,0,0,0.1-0.1,0.1
				L27.7,17.6L27.7,17.6C27.8,17.6,27.7,17.6,27.7,17.6 M32.1,13c-0.9-0.2-1.6-0.9-1.9-1.8c-0.4-1.3-0.5-2.6-0.4-3.9
				c-0.9-0.1-1.8,0-2.7,0.3C26.5,8,26.4,9,26.4,9.8c0,0.2,0,0.3,0,0.5c-0.1,1.2-0.2,2.4-0.2,3.6c0,0.2,0.1,0.3,0.3,0.4
				c0.6,0.3,1.2,0.4,1.9,0.3c0,0,0,0,0.1,0c0.1,0,0.1,0.1,0.1,0.1l-0.5,2.8l4.1-1.1L32.1,13z"/>
			<path id="Trazado_329" class="st6" d="M21.4,28.4l0.9-0.7l-1,7.5c-0.1,0,10,3.9,14.9,3.1c0.4-3.7,0.6-7.4,0.6-11.1l2.4-1.1
				c-0.3-3.2-3.5-9-3.5-9c-2-2.8-7.3-1.9-9.3-0.4c-2.4,1.7-5,3.2-7.6,4.6L21.4,28.4z"/>
			<path id="Trazado_330" class="st2" d="M27.6,11.4c-0.3,1.6-1.5,1.6-1.5,1.6"/>
			<path id="Trazado_331" class="st5" d="M26.2,13C26.1,13,26.1,13,26.2,13c-0.1-0.2-0.1-0.2,0-0.2c0.1,0,1.1,0,1.4-1.5
				c0-0.1,0.1-0.1,0.1-0.1c0.1,0,0.1,0.1,0.1,0.1c0,0,0,0,0,0C27.4,13,26.2,13,26.2,13L26.2,13"/>
			<path id="Trazado_332" class="st2" d="M29.6,12.5L29.6,12.5c0.7-0.4,1.3-1.2,1.3-2.1c0-0.2,0-0.4-0.1-0.6
				c-0.1-0.2-0.2-0.3-0.4-0.4c-0.2-0.1-0.5,0-0.7,0.1c-0.2,0.1-0.3,0.3-0.5,0.5c-0.2,0.2-0.3,0.5-0.4,0.8"/>
			<path id="Trazado_333" class="st5" d="M29.5,12.7c0,0,0-0.1,0-0.1l0.1-0.1c0,0,0.1,0,0.1,0c0.7-0.4,1.2-1.2,1.2-2
				c0-0.2,0-0.4-0.1-0.6c-0.1-0.2-0.2-0.3-0.4-0.4c-0.2,0-0.4,0-0.6,0.1c-0.2,0.1-0.3,0.3-0.5,0.5c-0.2,0.2-0.3,0.5-0.4,0.7
				c0,0.1-0.1,0.1-0.1,0.1c0,0-0.1,0-0.1-0.1c0.1-0.3,0.2-0.6,0.4-0.8c0.1-0.2,0.3-0.4,0.5-0.5c0.2-0.2,0.5-0.2,0.7-0.1
				c0.2,0.1,0.4,0.2,0.5,0.5C31,10,31,10.2,31,10.5c0,0.9-0.6,1.8-1.4,2.2C29.6,12.7,29.5,12.7,29.5,12.7
				C29.5,12.7,29.5,12.7,29.5,12.7"/>
			<path id="Trazado_334" class="st5" d="M28.2,15.7c0.9-0.2,1.6-1,1.8-2c-0.4,0.4-1,0.7-1.6,0.9L28.2,15.7z"/>
			<path id="Trazado_335" class="st5" d="M28.1,15.7C28.1,15.7,28.1,15.7,28.1,15.7l0.2-1.2c0,0,0-0.1,0.1-0.1
				c0.6-0.1,1.1-0.4,1.5-0.8c0,0,0.1,0,0.1,0c0.1,0,0.1,0.1,0.1,0.1C29.9,14.7,29.2,15.5,28.1,15.7L28.1,15.7
				C28.1,15.8,28.1,15.8,28.1,15.7 M29.8,14c-0.4,0.3-0.8,0.5-1.3,0.6l-0.2,0.9C29,15.3,29.6,14.7,29.8,14L29.8,14z"/>
			<path id="Trazado_336" class="st5" d="M21.3,28.5c0,0,0-0.1,0-0.1c2-1.4,3.9-3,5.7-4.6c0,0,0.1-0.1,0.1,0c0,0,0.1,0.1,0,0.1
				c0,0,0,0,0,0c-1.8,1.7-3.7,3.2-5.7,4.6C21.4,28.5,21.3,28.5,21.3,28.5"/>
			<path id="Trazado_337" class="st5" d="M27.3,9.5c-0.1,0-0.2-0.2-0.2-0.4c0-0.2,0-0.4,0.1-0.4c0.1,0,0.2,0.2,0.2,0.4
				C27.4,9.3,27.4,9.5,27.3,9.5"/>
			<path id="Trazado_338" class="st5" d="M36.8,26.1c0-0.1-0.2-5.7-0.9-7.6c0,0,0-0.1,0-0.1c0,0,0.1,0,0.1,0c0,0,0,0,0,0
				c0.8,1.9,1,7.5,1,7.7l0,0C37,26.2,36.9,26.2,36.8,26.1C36.8,26.2,36.8,26.2,36.8,26.1"/>
		</g>
	</g>
</g>
</svg>
