<svg xmlns="http://www.w3.org/2000/svg" fill="none" viewBox="-0.875 -0.875 42 42" id="Whatsapp-Logo--Streamline-Ultimate" height="42" width="42"><desc>Whatsapp Logo Streamline Icon: https://streamlinehq.com</desc><path fill="#c9f7ca" d="M20.125 0.8385416666666666A19.231114583333333 19.231114583333333 0 0 0 0.8385416666666666 19.97238541666667 18.93259375 18.93259375 0 0 0 4.513031249999999 31.19375l-2.4082916666666665 7.107479166666667 7.411031249999999 -2.3563020833333335A19.303229166666664 19.303229166666664 0 0 0 39.41145833333333 19.9740625 19.231114583333333 19.231114583333333 0 0 0 20.125 0.8385416666666666" stroke-width="1.75"></path><path fill="#78eb7b" d="M20.125 30.794604166666662A19.286458333333332 19.286458333333332 0 0 1 1.3248958333333334 15.764583333333333a18.838677083333334 18.838677083333334 0 0 0 3.186458333333333 15.429166666666665l-2.4066145833333334 7.107479166666667 7.411031249999999 -2.3563020833333335A19.303229166666664 19.303229166666664 0 0 0 39.41145833333333 19.9740625a18.9678125 18.9678125 0 0 0 -0.4863541666666666 -4.209479166666666A19.286458333333332 19.286458333333332 0 0 1 20.125 30.794604166666662Z" stroke-width="1.75"></path><path stroke="#191919" stroke-linecap="round" stroke-linejoin="round" d="M20.125 0.8385416666666666A19.231114583333333 19.231114583333333 0 0 0 0.8385416666666666 19.97238541666667 18.93259375 18.93259375 0 0 0 4.513031249999999 31.19375l-2.4082916666666665 7.107479166666667 7.411031249999999 -2.3563020833333335A19.303229166666664 19.303229166666664 0 0 0 39.41145833333333 19.9740625 19.231114583333333 19.231114583333333 0 0 0 20.125 0.8385416666666666" stroke-width="1.75"></path><path fill="#ffffff" d="M31.708614583333333 25.214947916666667c-0.140875 -0.23143750000000002 -0.5148645833333333 -0.3739895833333333 -1.0766875 -0.6507083333333333s-3.3290104166666667 -1.6301249999999998 -3.842197916666666 -1.8146041666666668c-0.5131875 -0.18447916666666667 -0.8922083333333334 -0.28007291666666667 -1.2661979166666666 0.27839583333333334 -0.3739895833333333 0.55846875 -1.4523541666666666 1.812927083333333 -1.7810625 2.1802083333333333 -0.3287083333333333 0.36728125 -0.6557395833333334 0.4192708333333333 -1.2175624999999999 0.140875a15.405687499999999 15.405687499999999 0 0 1 -4.528125 -2.7688645833333334 16.732260416666666 16.732260416666666 0 0 1 -3.1260833333333333 -3.8572916666666663c-0.3354166666666667 -0.5567916666666667 -0.03521875 -0.8586666666666667 0.24653124999999998 -1.1370625 0.5903333333333333 -0.5366666666666666 1.066625 -1.1856979166666666 1.4053958333333332 -1.908520833333333a1.0163125 1.0163125 0 0 0 -0.04695833333333333 -0.9777395833333332C16.339822916666666 14.422916666666666 15.214499999999997 11.675854166666666 14.746593749999999 10.565624999999999c-0.5299583333333333 -1.2678749999999999 -2.89296875 -1.3114791666666668 -3.8438749999999997 -0.28175 -3.000302083333333 3.25521875 -2.3076666666666665 6.943124999999999 0.3354166666666667 10.423072916666666 0.28175 0.3723125 3.8908333333333327 6.190114583333333 9.606333333333332 8.423989583333332 5.7155 2.233875 5.7155 1.4875729166666667 6.746906249999999 1.3936562499999998 2.96340625 -0.26665625 4.969197916666666 -3.895864583333333 4.123947916666666 -5.304614583333333" stroke-width="1.75"></path><path stroke="#191919" stroke-linecap="round" stroke-linejoin="round" d="M31.708614583333333 25.214947916666667c-0.140875 -0.23143750000000002 -0.5148645833333333 -0.3739895833333333 -1.0766875 -0.6507083333333333s-3.3290104166666667 -1.6301249999999998 -3.842197916666666 -1.8146041666666668c-0.5131875 -0.18447916666666667 -0.8922083333333334 -0.28007291666666667 -1.2661979166666666 0.27839583333333334 -0.3739895833333333 0.55846875 -1.4523541666666666 1.812927083333333 -1.7810625 2.1802083333333333 -0.3287083333333333 0.36728125 -0.6557395833333334 0.4192708333333333 -1.2175624999999999 0.140875a15.405687499999999 15.405687499999999 0 0 1 -4.528125 -2.7688645833333334 16.732260416666666 16.732260416666666 0 0 1 -3.1260833333333333 -3.8572916666666663c-0.3354166666666667 -0.5567916666666667 -0.03521875 -0.8586666666666667 0.24653124999999998 -1.1370625 0.5903333333333333 -0.5366666666666666 1.066625 -1.1856979166666666 1.4053958333333332 -1.908520833333333a1.0163125 1.0163125 0 0 0 -0.04695833333333333 -0.9777395833333332C16.339822916666666 14.422916666666666 15.214499999999997 11.675854166666666 14.746593749999999 10.565624999999999c-0.5299583333333333 -1.2678749999999999 -2.89296875 -1.3114791666666668 -3.8438749999999997 -0.28175 -3.000302083333333 3.25521875 -2.3076666666666665 6.943124999999999 0.3354166666666667 10.423072916666666 0.28175 0.3723125 3.8908333333333327 6.190114583333333 9.606333333333332 8.423989583333332 5.7155 2.233875 5.7155 1.4875729166666667 6.746906249999999 1.3936562499999998 2.96340625 -0.26665625 4.969197916666666 -3.895864583333333 4.123947916666666 -5.304614583333333" stroke-width="1.75"></path></svg>