<svg transform="scale(1)" id="_0625_Workflow_1" xmlns="http://www.w3.org/2000/svg" viewBox="0 0 500 500" class="show_show__wrapper__graphic__5Waiy "><title>React</title><defs><style>.cls-1,.cls-2,.cls-3{fill:#fff;}.cls-4{fill:#f4a28c;}.cls-5{fill:#a5a5a5;}.cls-2{opacity:.48;}.cls-6{fill:none;opacity:.23;}.cls-7{opacity:.11;}.cls-8{fill:#e6e6e6;}.cls-3{opacity:.33;}.cls-9{fill:#24285b;}.cls-10{fill:#ffd200;}.cls-11{fill:#4463B3;}</style></defs><g class="cls-6" id="bg"><path class="cls-8" d="m217.68,37.82C112.81,41.36,26.07,123.81,19.11,230.37c-3.21,49.12,10.64,102.31,65.26,143.82,137.99,104.86,317.1,57.35,367.64-28.93,50.54-86.28,45.72-236.46-94.92-284.51-52.67-18-99.17-24.3-139.42-22.94Z"></path></g><g id="idea"><g id="bulb"><rect class="cls-8" x="116.95" y="159.64" width="14.29" height="14.29" rx="2.21" ry="2.21" transform="translate(-7.97 6.24) rotate(-2.79)"></rect><path class="cls-10" d="m159.44,94.84c-1.04-21.38-19.37-37.82-40.8-36.47-20.68,1.3-36.72,19.03-35.96,39.74.43,11.84,6.17,22.2,14.81,28.93,6.08,4.73,10.05,11.66,11.33,19.25l2.12,12.6,12.12-.59,2.04-.1,12.12-.59.89-12.87c.54-7.76,4.04-14.96,9.64-20.36,7.7-7.43,12.27-18.01,11.71-29.53Z"></path><path class="cls-9" d="m110.02,150.5h27.82v6.82c0,5.38-4.37,9.75-9.75,9.75h-8.32c-5.38,0-9.75-4.37-9.75-9.75v-6.82h0Z" transform="translate(-7.58 6.22) rotate(-2.79)"></path><path class="cls-1" d="m128.04,142.49c-.07,0-.14,0-.22-.02-.54-.12-.88-.65-.76-1.19l10.47-47.59-16.29,20.25c-.19.24-.48.4-.8.37-.31,0-.6-.16-.78-.41l-12.63-17.2,11.04,43.41c.14.54-.19,1.08-.72,1.22-.53.13-1.08-.19-1.21-.72l-12.31-48.39c-.12-.46.11-.95.54-1.15.43-.2.95-.07,1.23.31l14.9,20.29,18.15-22.56c.29-.36.79-.47,1.21-.27.42.2.64.66.54,1.12l-11.39,51.75c-.1.47-.52.79-.98.79Z"></path></g><path class="cls-9" d="m116.53,50.72c-.79,0-1.45-.61-1.5-1.4l-.49-7.7c-.05-.83.58-1.54,1.4-1.59.86-.05,1.54.58,1.59,1.4l.49,7.7c.05.83-.58,1.54-1.4,1.59-.03,0-.07,0-.1,0Z"></path><path class="cls-9" d="m146.34,57.47c-.24,0-.49-.06-.72-.18-.73-.4-1-1.31-.6-2.03l3.69-6.77c.4-.73,1.31-1,2.03-.6.73.4,1,1.31.6,2.03l-3.69,6.77c-.27.5-.79.78-1.32.78Z"></path><path class="cls-9" d="m89.86,62.38c-.33,0-.67-.11-.94-.33l-6.01-4.88c-.64-.52-.74-1.47-.22-2.11.52-.64,1.47-.74,2.11-.22l6.01,4.88c.64.52.74,1.47.22,2.11-.3.37-.73.56-1.17.56Z"></path><path class="cls-9" d="m75.29,89.06c-.07,0-.13,0-.2-.01l-7.65-1.02c-.82-.11-1.4-.86-1.29-1.69.11-.82.86-1.4,1.69-1.29l7.65,1.02c.82.11,1.4.86,1.29,1.69-.1.75-.75,1.3-1.49,1.3Z"></path><path class="cls-9" d="m74.52,124.45c-.5,0-1-.25-1.28-.72-.43-.71-.21-1.63.5-2.06l6.58-4.02c.71-.43,1.63-.21,2.06.5.43.71.21,1.63-.5,2.06l-6.58,4.02c-.24.15-.51.22-.78.22Z"></path><path class="cls-9" d="m165.34,80.59c-.73,0-1.37-.53-1.48-1.27-.13-.82.44-1.58,1.26-1.71l7.62-1.17c.82-.12,1.58.44,1.71,1.26.13.82-.44,1.58-1.26,1.71l-7.62,1.17c-.08.01-.15.02-.23.02Z"></path><path class="cls-9" d="m172.6,117.91c-.24,0-.49-.06-.72-.18l-6.77-3.69c-.73-.4-1-1.31-.6-2.03.4-.73,1.31-1,2.03-.6l6.77,3.69c.73.4,1,1.31.6,2.03-.27.5-.79.78-1.32.78Z"></path></g><g id="analysis"><rect class="cls-11" x="338.27" y="117.01" width="11.11" height="37.56" rx="5.56" ry="5.56" transform="translate(36.09 -69.04) rotate(12.1)"></rect><rect class="cls-2" x="338.27" y="117.01" width="11.11" height="37.56" rx="5.56" ry="5.56" transform="translate(36.09 -69.04) rotate(12.1)"></rect><circle class="cls-11" cx="355.12" cy="83.13" r="39.24"></circle><circle class="cls-1" cx="355.12" cy="83.13" r="26.04"></circle><rect class="cls-9" x="331.36" y="135.36" width="17.44" height="37.66" rx="5.36" ry="5.36" transform="translate(39.87 -67.85) rotate(12.1)"></rect></g><g id="work"><path class="cls-4" d="m334.29,304s-13.02,1.03-25.62,14.55c-12.6,13.52-17.7,64.2-17.7,64.2l39.65,1.75,3.67-80.49Z"></path><path class="cls-7" d="m334.29,304s-13.02,1.03-25.62,14.55c-12.6,13.52-17.7,64.2-17.7,64.2l39.65,1.75,3.67-80.49Z"></path><path class="cls-11" d="m367.48,298.79s22.72.06,46.72,20.98c23.4,20.41-12.94,97.84-12.94,97.84l-95.83-1.98s-2.29-25.09.78-59.3c3.06-34.21,18.32-62.75,65.59-57.16"></path><path class="cls-9" d="m334.71,277.97s-5.25,11.38-.94,20.75c0,0,13.25,1.49,20.53-5.79,7.28-7.27-4.22-16.87-4.22-16.87l-15.36,1.91Z"></path><path class="cls-4" d="m329.82,270.07l-1.96,4.56c-.48,1.13.37,2.37,1.6,2.33l4.06-.14-3.7-6.75Z"></path><path class="cls-4" d="m328.34,262.42s1.61,11.87,5.31,19.17c1.5,2.96,5.18,4.16,8.12,2.62,3.65-1.92,8.03-5.57,7.94-12.03l1.2-10.99s.51-6.91-7.15-10.17-16.76,4.23-15.42,11.41Z"></path><polygon class="cls-4" points="357.67 257.1 367.48 298.79 340.73 318.54 347.26 264.39 357.67 257.1"></polygon><path class="cls-9" d="m328.3,259.75s3.7,8.49,11.8,8.46c8.1-.03,6.66,6.14,9.48,13.92,2.82,7.78,7.97,9.86,7.97,9.86l28.05-12.74s-6.5-16.74-14.53-19.39c-10.07-3.31-11.75-2.09-15.68-8.43-3.93-6.34-23.3-8.04-27.08,8.31Z"></path><path class="cls-7" d="m386.66,323.43s-16.03,13.96-9.9,34.62c6.13,20.66-1.02,50.28-9.19,52.66-8.17,2.38-7.49,5.45-7.49,5.45l42.38-1.19.51-2.1,12.6-32.79-28.91-56.64Z"></path><rect class="cls-9" x="250.82" y="414.96" width="185.34" height="47.41"></rect><path class="cls-4" d="m385.59,329.46c-.26-13.08,14.83-20.8,25.2-12.82.71.54,1.42,1.14,2.13,1.8,12.04,11.1,24.74,63.04,9.2,90.38-2.16,3.8-6.47,5.83-10.79,5.22l-48.96-6.93-25.28.44s3.32-10.72,12-11.49c8.68-.77,14.04,3.32,14.04,3.32l39.83-5.36s-16.88-39.28-17.38-64.55Z"></path><path class="cls-10" d="m268.54,411.88l-10.37-46.69c-.54-2.45,1.32-4.77,3.83-4.77h68.96c1.83,0,3.42,1.26,3.82,3.05l9.26,40.59c.41,1.78,1.99,3.05,3.82,3.05h26.49c2.17,0,3.92,1.76,3.92,3.92h0c0,2.17-1.76,3.92-3.92,3.92h-101.99c-1.84,0-3.43-1.28-3.83-3.07Z"></path><circle class="cls-1" cx="300.8" cy="387.23" r="4.49"></circle><path class="cls-3" d="m273.15,360.42s-.22,47.4,32.14,54.53h-32.92s-2.82.28-3.83-3.07l-10.37-46.69s-.55-4.06,3.83-4.77h11.15Z"></path></g><g id="lines"><path class="cls-5" d="m171.81,232.05c-4.96,0-9.89-.63-14.64-1.93-34.78-9.48-35.07-49.28-35.07-49.68,0-1.1.9-1.99,2-1.99h0c1.1,0,2,.9,2,2,0,1.51.33,37.14,32.12,45.81,16.86,4.6,36.09.2,50.19-11.48,15.21-12.6,22.62-31.85,20.84-54.19-2.76-34.72,11.69-51.33,20.55-58.14,10.03-7.7,22.34-10.34,32.13-6.88,1.04.37,1.59,1.51,1.22,2.55-.37,1.04-1.51,1.59-2.55,1.22-8.4-2.97-19.53-.5-28.36,6.28-8.22,6.31-21.61,21.81-19,54.65,1.88,23.67-6.03,44.12-22.28,57.58-11.12,9.21-25.25,14.19-39.15,14.19Z"></path><path class="cls-5" d="m402.97,259.1c-.73,0-1.43-.4-1.79-1.1-.5-.99-.1-2.19.88-2.69.55-.28,54.55-28.2,47.95-73.9-6.68-46.23-43.97-72.36-44.34-72.62-.91-.63-1.14-1.87-.51-2.78s1.87-1.14,2.78-.52c.39.27,39.1,27.34,46.04,75.35,2.91,20.15-4.87,40.06-22.5,57.58-13.19,13.1-27.02,20.17-27.6,20.47-.29.15-.6.21-.9.21Z"></path><path class="cls-5" d="m290.61,97.45l-8.99-8.84c-1.07-1.05-2.88-.55-3.26.9l-3.16,12.2c-.38,1.45.96,2.77,2.41,2.37l12.15-3.36c1.45-.4,1.92-2.22.85-3.27Z"></path><path class="cls-5" d="m396.77,264.17l12.59-.61c1.5-.07,2.36-1.74,1.55-3.01l-6.83-10.6c-.81-1.26-2.69-1.17-3.38.16l-5.76,11.21c-.69,1.34.33,2.91,1.83,2.84Z"></path><path class="cls-5" d="m166.97,343.77l12.1,3.55c1.44.42,2.8-.87,2.45-2.33l-2.97-12.25c-.35-1.46-2.16-1.99-3.24-.95l-9.12,8.7c-1.09,1.04-.64,2.86.8,3.28Z"></path><path class="cls-5" d="m177.78,340.76c-1.03,0-1.9-.78-1.99-1.83-.1-1.1.72-2.07,1.82-2.17,81.1-7.12,112-25.93,112.3-26.12.94-.58,2.17-.3,2.76.63.59.93.31,2.17-.63,2.75-1.26.79-31.82,19.49-114.08,26.71-.06,0-.12,0-.18,0Z"></path></g><g id="check"><circle class="cls-9" cx="102.41" cy="346.45" r="49.05"></circle><path class="cls-1" d="m101.7,369.39c-1.68,0-3.31-.65-4.53-1.84l-15.99-15.55c-2.57-2.5-2.63-6.62-.13-9.19,2.5-2.57,6.62-2.63,9.19-.13l9.44,9.18,11.5-24.59c1.52-3.25,5.39-4.66,8.64-3.13,3.25,1.52,4.66,5.39,3.13,8.64l-15.37,32.87c-.89,1.91-2.65,3.26-4.72,3.64-.39.07-.78.11-1.17.11Z"></path></g></svg>